<svg xmlns="http://www.w3.org/2000/svg" viewBox="-2.36156274 -2.36156274 99.68211748 83.44188348"><path d="M 5.410156,0 C 2.421406,0 0,2.42141 0,5.41016 c 0,2.98875 2.421406,5.41211 5.410156,5.41211 2.98875,0 5.412109,-2.42336 5.412109,-5.41211 C 10.822265,2.42141 8.398906,0 5.410156,0 Z m 70.472653,13.35743 c -10.51875,0 -19.07617,8.55937 -19.07617,19.07812 0,8.365 5.41102,15.48329 12.91602,18.05079 -5.02375,2.37625 -8.50782,7.49195 -8.50782,13.4082 0,8.17375 6.65047,14.82422 14.82422,14.82422 8.17375,0 14.82422,-6.65047 14.82422,-14.82422 0,-5.96875 -3.54758,-11.12125 -8.64258,-13.46875 7.4125,-2.61875 12.73829,-9.69149 12.73829,-17.99024 0,-3.4175 -0.90704,-6.6268 -2.48829,-9.4043 l 2.41016,0 0,-9.66992 -18.82227,0 c -0.0588,0 -0.11703,-0.004 -0.17578,-0.004 z m -42.992184,0.0176 c -10.52875,0 -19.064454,8.53375 -19.064454,19.0625 10e-7,10.52875 8.535704,19.06445 19.064454,19.06445 3.86375,0 7.456484,-1.15195 10.458984,-3.12695 l 0,2.54492 9.67773,0 0,-36.88672 -9.67773,0 0,2.46875 c -3.0025,-1.975 -6.595234,-3.12695 -10.458984,-3.12695 z m -32.31836,0.6582 0,36.88672 9.677735,0 0,-36.88672 -9.677735,0 z m 32.31836,8.08398 c 5.69125,0 10.320312,4.63032 10.320312,10.32032 0,5.69125 -4.629062,10.32226 -10.320312,10.32226 -5.69125,0 -10.320313,-4.63101 -10.320313,-10.32226 0,-5.69 4.629063,-10.32032 10.320313,-10.32032 z m 42.992184,0.10157 c 5.6325,0 10.21485,4.58429 10.21485,10.21679 0,5.63375 -4.58235,10.21485 -10.21485,10.21485 -5.6325,0 -10.21484,-4.5811 -10.21484,-10.21485 0,-5.6325 4.58234,-10.21679 10.21484,-10.21679 z m 0.15625,35.71289 c 3.2875,0 5.96094,2.67539 5.96094,5.96289 0,3.2875 -2.67344,5.96094 -5.96094,5.96094 -3.2875,0 -5.96289,-2.67344 -5.96289,-5.96094 0,-3.2875 2.67539,-5.96289 5.96289,-5.96289 z" style="fill:#582583"/></svg>
